<svg width="13830" height="3046" viewBox="0 0 13830 3046" fill="none" xmlns="http://www.w3.org/2000/svg">
<path d="M1392.46 0C1670.95 0 1910.28 44.965 2110.44 134.895C2313.51 224.824 2470.16 355.366 2580.4 526.522C2690.63 694.778 2745.75 894.944 2745.75 1127.02C2745.75 1356.2 2690.63 1554.91 2580.4 1723.17C2470.16 1891.42 2313.51 2021.96 2110.44 2114.79C1910.28 2204.72 1670.95 2249.69 1392.46 2249.69H861.583V3046H0V1570.65H861.583V1570.87H1340.24C1520.1 1570.87 1653.54 1531.7 1740.57 1453.38C1830.5 1375.05 1875.47 1266.27 1875.47 1127.02C1875.47 984.874 1830.5 874.637 1740.57 796.312C1653.54 717.986 1520.1 678.823 1340.24 678.823C1340.24 678.823 1048.51 678.823 861.583 678.823V678.891H0V0H1392.46Z" fill="#B4B6B5"/>
<path d="M4434.51 3046C4156.01 3046 3912.33 2993.78 3703.47 2889.35C3497.5 2782.01 3336.49 2636.96 3220.46 2454.2C3107.32 2268.54 3050.75 2058.22 3050.75 1823.25C3050.75 1588.27 3105.87 1379.4 3216.11 1196.64C3329.24 1010.98 3484.44 867.384 3681.71 765.85C3878.97 661.416 4100.9 609.199 4347.48 609.199C4579.55 609.199 4791.32 657.065 4982.79 752.796C5174.25 845.627 5326.55 983.422 5439.68 1166.18C5552.82 1348.94 5609.39 1570.86 5609.39 1831.95C5609.39 1860.96 5607.94 1894.32 5605.04 1932.03C5602.14 1969.75 5599.24 2004.56 5596.34 2036.47H3729.57V1601.32H5156.84L4843.54 1723.16C4846.44 1615.83 4826.13 1523 4782.62 1444.67C4742.01 1366.35 4683.99 1305.43 4608.56 1261.91C4536.04 1218.4 4450.46 1196.64 4351.83 1196.64C4253.2 1196.64 4166.17 1218.4 4090.74 1261.91C4018.22 1305.43 3961.65 1367.8 3921.04 1449.02C3880.42 1527.35 3860.12 1620.18 3860.12 1727.52V1853.71C3860.12 1969.75 3883.32 2069.83 3929.74 2153.96C3979.06 2238.08 4048.68 2303.36 4138.61 2349.77C4228.54 2393.28 4335.87 2415.04 4460.61 2415.04C4576.65 2415.04 4675.28 2399.09 4756.51 2367.18C4840.64 2332.36 4923.32 2280.15 5004.54 2210.52L5439.68 2663.07C5326.55 2787.81 5187.3 2883.55 5021.95 2950.27C4856.59 3014.09 4660.78 3046 4434.51 3046Z" fill="#B4B6B5"/>
<path d="M7588.89 630.956C7588.89 787.166 7545.38 957.313 7284.29 1196.64C7044.96 957.313 7001.45 787.166 7001.45 630.956C7001.45 474.746 7132.95 348.113 7295.17 348.113C7457.39 348.113 7588.89 474.746 7588.89 630.956Z" fill="#654D65"/>
<path d="M7001.45 2763.16C7001.45 2606.95 7044.96 2436.8 7306.05 2197.47C7545.38 2436.8 7588.89 2606.95 7588.89 2763.16C7588.89 2919.37 7457.39 3046 7295.17 3046C7132.95 3046 7001.45 2919.37 7001.45 2763.16Z" fill="#654D65"/>
<path d="M8350.39 1414.21C8194.18 1414.21 8024.03 1457.73 7784.7 1718.81C8024.03 1958.14 8194.18 2001.66 8350.39 2001.66C8506.6 2001.66 8633.23 1870.15 8633.23 1707.93C8633.23 1545.72 8506.6 1414.21 8350.39 1414.21Z" fill="#654D65"/>
<path d="M8251.98 2249.35C8141.52 2138.9 7990.44 2049.35 7636.59 2064.74C7636.59 2403.2 7726.13 2554.28 7836.59 2664.74C7947.05 2775.2 8129.58 2771.75 8244.28 2657.05C8358.99 2542.34 8362.43 2359.81 8251.98 2249.35Z" fill="#654D65"/>
<path d="M8251.98 1159.31C8141.52 1269.77 7990.44 1359.31 7636.59 1343.93C7636.59 1005.47 7726.13 854.385 7836.59 743.928C7947.05 633.471 8129.58 636.915 8244.28 751.62C8358.99 866.325 8362.43 1048.86 8251.98 1159.31Z" fill="#654D65"/>
<path d="M6309.4 1159.31C6419.86 1269.77 6570.94 1359.31 6924.79 1343.93C6924.79 1005.47 6835.25 854.385 6724.79 743.928C6614.33 633.471 6431.8 636.915 6317.1 751.62C6202.39 866.325 6198.95 1048.86 6309.4 1159.31Z" fill="#654D65"/>
<path d="M6309.4 2249.35C6419.86 2138.9 6570.94 2049.35 6924.79 2064.74C6924.79 2403.2 6835.25 2554.28 6724.79 2664.74C6614.33 2775.2 6431.8 2771.75 6317.1 2657.05C6202.39 2542.34 6198.95 2359.81 6309.4 2249.35Z" fill="#654D65"/>
<path d="M6196.43 1414.21C6352.64 1414.21 6522.79 1457.73 6762.12 1718.81C6522.79 1958.14 6352.64 2001.66 6196.43 2001.66C6040.22 2001.66 5913.59 1870.15 5913.59 1707.93C5913.59 1545.72 6040.22 1414.21 6196.43 1414.21Z" fill="#654D65"/>
<path d="M11017.8 0H11879.4V3046H11017.8V0ZM9842.93 3046H8981.35V0H9842.93V3046ZM11078.7 1858.06H9782.01V1144.43H11078.7V1858.06Z" fill="#88A646"/>
<path d="M12415.7 0.000207492C12694.2 0.000207492 12933.6 44.9692 13133.7 134.899C13336.8 224.828 13493.4 355.372 13603.7 526.527C13713.9 694.782 13769 894.941 13769 1127.02C13769 1356.19 13713.9 1554.91 13603.7 1723.17C13500.6 1877.81 13356.9 1999.44 13172.6 2088.11L13830 3046H12907.4L12367.1 2254.16L12370.1 2254.31L11903.9 1570.87H12363.5C12543.4 1570.87 12676.8 1531.7 12763.9 1453.37C12853.8 1375.05 12898.8 1266.26 12898.8 1127.02C12898.8 984.871 12853.8 874.628 12763.9 796.303C12676.8 717.98 12543.4 678.827 12363.5 678.827H11884.9V1570.87H11884.9V2236.63H11884.9V3046H11023.3V0.000207492H12415.7Z" fill="#88A646"/>
</svg>
